HIERARCHY
ROOT Hips
{
	OFFSET 24.400370 100.070396 -93.787987
	CHANNELS 6 Xposition Yposition Zposition Zrotation Yrotation Xrotation 
	JOINT LeftUpLeg
	{
		OFFSET 0.103456 1.857829 10.548504
		CHANNELS 3 Zrotation Yrotation Xrotation
		JOINT LeftLeg
		{
			OFFSET 43.500000 -0.000031 -0.000008
			CHANNELS 3 Zrotation Yrotation Xrotation
			JOINT LeftFoot
			{
				OFFSET 42.372196 0.000008 0.000000
				CHANNELS 3 Zrotation Yrotation Xrotation
				JOINT LeftToe
				{
					OFFSET 17.299999 -0.000000 0.000004
					CHANNELS 3 Zrotation Yrotation Xrotation
					End Site
					{
						OFFSET 0.000000 0.000000 0.000000
					}
				}
			}
		}
	}
	JOINT RightUpLeg
	{
		OFFSET 0.103462 1.857831 -10.548504
		CHANNELS 3 Zrotation Yrotation Xrotation
		JOINT RightLeg
		{
			OFFSET 43.500046 -0.000031 0.000010
			CHANNELS 3 Zrotation Yrotation Xrotation
			JOINT RightFoot
			{
				OFFSET 42.372257 -0.000011 0.000010
				CHANNELS 3 Zrotation Yrotation Xrotation
				JOINT RightToe
				{
					OFFSET 17.299994 -0.000005 0.000006
					CHANNELS 3 Zrotation Yrotation Xrotation
					End Site
					{
						OFFSET 0.000000 0.000000 0.000000
					}
				}
			}
		}
	}
	JOINT Spine
	{
		OFFSET 6.901968 -2.603734 0.000000
		CHANNELS 3 Zrotation Yrotation Xrotation
		JOINT Spine1
		{
			OFFSET 12.588100 0.000000 -0.000001
			CHANNELS 3 Zrotation Yrotation Xrotation
			JOINT Spine2
			{
				OFFSET 12.343199 0.000008 0.000000
				CHANNELS 3 Zrotation Yrotation Xrotation
				JOINT Neck
				{
					OFFSET 25.832893 -0.000008 0.000001
					CHANNELS 3 Zrotation Yrotation Xrotation
					JOINT Head
					{
						OFFSET 11.766606 0.000005 0.000002
						CHANNELS 3 Zrotation Yrotation Xrotation
						End Site
						{
							OFFSET 0.000000 0.000000 0.000000
						}
					}
				}
				JOINT LeftShoulder
				{
					OFFSET 19.745907 -1.480371 6.000105
					CHANNELS 3 Zrotation Yrotation Xrotation
					JOINT LeftArm
					{
						OFFSET 11.284126 -0.000008 -0.000019
						CHANNELS 3 Zrotation Yrotation Xrotation
						JOINT LeftForeArm
						{
							OFFSET 33.000046 0.000003 0.000033
							CHANNELS 3 Zrotation Yrotation Xrotation
							JOINT LeftHand
							{
								OFFSET 25.200008 0.000013 -0.000009
								CHANNELS 3 Zrotation Yrotation Xrotation
								End Site
								{
									OFFSET 0.000000 0.000000 0.000000
								}
							}
						}
					}
				}
				JOINT RightShoulder
				{
					OFFSET 19.746096 -1.480375 -6.000072
					CHANNELS 3 Zrotation Yrotation Xrotation
					JOINT RightArm
					{
						OFFSET 11.284140 -0.000012 -0.000021
						CHANNELS 3 Zrotation Yrotation Xrotation
						JOINT RightForeArm
						{
							OFFSET 33.000088 0.000010 0.000018
							CHANNELS 3 Zrotation Yrotation Xrotation
							JOINT RightHand
							{
								OFFSET 25.199780 0.000144 0.000414
								CHANNELS 3 Zrotation Yrotation Xrotation
								End Site
								{
									OFFSET 0.000000 0.000000 0.000000
								}
							}
						}
					}
				}
			}
		}
	}
}
MOTION
Frames: 11
Frame Time: 0.033333
24.400370 100.070396 -93.787987 88.681113 -9.536080 71.690670 156.150733 -5.636794 168.213271 -35.505038 4.635384 0.149101 67.693417 -0.955518 -2.053177 21.454557 0.003083 0.000003 155.038368 -4.549499 -162.901979 -95.649150 -2.668295 9.353681 79.569197 -2.760645 14.846627 21.454558 -0.003107 -0.000020 7.191895 -0.229818 -1.297856 4.375680 -0.410914 -2.603367 4.057917 -0.426491 -2.600847 -4.246465 -9.618477 -6.579688 8.572478 22.145439 -13.784360 -159.221190 -77.535850 -22.650943 -9.723085 53.466270 24.858504 -51.723062 -9.851007 1.461991 9.171991 -11.655594 36.064878 -170.012711 76.524422 11.627634 6.571453 -50.382781 -42.730504 -61.072936 13.648561 -2.079495 3.087651 15.337683 -18.340482 
23.380550 99.663857 -93.751068 89.415038 -9.166402 70.353271 156.147004 -3.116891 169.352901 -35.934855 5.420008 8.419790 71.957231 -7.788001 -5.199679 21.454548 0.003088 -0.000001 157.859086 -3.571104 -163.785532 -95.640762 -2.845395 9.180497 80.010742 -2.542568 15.408123 21.454555 -0.003106 -0.000018 7.224189 -0.332381 -0.970423 4.440953 -0.627671 -1.952782 4.123036 -0.639311 -1.948956 -4.297320 -11.535039 -6.553026 9.539996 23.654692 -14.616443 -156.929907 -77.376256 -24.991848 -8.194549 54.895187 26.602224 -51.428271 -9.998728 1.462331 7.515658 -12.490873 38.566516 -169.482798 77.052436 12.170420 6.456825 -51.212885 -43.401389 -60.236155 13.828720 -2.060253 3.986886 14.804660 -17.505667 
22.384230 98.195221 -93.619652 90.016388 -8.347229 68.113235 156.441248 0.393903 176.709425 -36.047368 5.348935 13.459012 72.029467 -12.515849 -8.597270 21.454553 0.003097 0.000001 161.011382 -2.701007 -165.352774 -95.357132 -3.312143 9.517213 80.014580 -2.898737 14.812051 21.454553 -0.003106 -0.000024 7.306732 -0.440920 -0.425308 4.604000 -0.864778 -0.867685 4.285910 -0.869866 -0.862441 -4.147187 -12.937094 -6.925778 10.571701 24.936623 -15.483506 -154.973099 -76.668832 -27.004051 -7.261962 56.184054 27.184221 -49.991005 -10.104650 1.423424 7.593415 -13.063754 40.146462 -168.743689 78.033907 12.926225 5.441449 -52.009971 -44.287490 -58.361487 14.163576 -2.013517 4.990653 13.029347 -17.559568 
21.398069 95.843964 -93.461739 91.014668 -7.821493 65.385729 156.409338 3.719899 -174.887677 -36.335018 3.840191 15.798169 68.809300 -14.025747 -7.271714 21.454553 0.003090 -0.000002 163.422494 -1.178208 -167.704421 -95.242473 -3.554713 9.674973 80.422602 -3.080685 14.631420 21.454563 -0.003106 -0.000018 7.235248 -0.573867 0.156899 4.456415 -1.153349 0.291800 4.138248 -1.151427 0.298770 -3.212179 -14.904912 -7.080481 10.096211 26.417500 -16.739907 -152.943891 -75.626238 -29.103054 -5.965472 57.430191 27.112625 -48.355161 -9.775570 1.350416 7.966066 -13.461254 40.938545 -171.534887 78.984950 10.085620 4.008545 -52.035035 -45.120250 -55.762972 14.451171 -1.939301 5.454738 10.787684 -17.405067 
20.217199 92.598763 -93.518494 91.212621 -8.177814 62.440415 155.791656 5.274597 -170.895759 -40.936940 2.947486 12.367152 73.982813 -7.009159 5.562256 21.454550 0.003093 0.000000 164.628555 -0.534394 -170.056561 -95.069225 -3.579334 10.017137 80.323271 -3.322359 14.514618 21.454555 -0.003106 -0.000017 7.104557 -0.506640 0.793338 4.189299 -1.041432 1.568062 3.871277 -1.031805 1.574331 -3.043656 -15.778258 -7.658852 8.334632 26.771469 -18.175922 -151.871510 -74.667949 -30.226049 -4.883600 58.174183 26.300968 -46.878286 -9.036561 1.256294 7.681568 -12.785332 38.894820 -176.507115 78.605697 5.018904 1.427306 -50.595320 -44.913309 -52.537081 14.584651 -1.836637 6.866543 9.960290 -15.895274 
19.230040 88.757561 -93.742996 91.874445 -8.325032 58.830024 154.529806 5.470603 -173.461984 -46.942411 3.563472 8.811581 86.391484 -4.189557 9.634598 21.454550 0.003094 0.000000 164.887228 1.012696 -172.743639 -95.108970 -3.676709 10.077849 81.010060 -3.332193 14.938655 21.454560 -0.003110 -0.000021 7.018469 -0.529860 1.337718 4.011477 -1.105290 2.656590 3.693698 -1.089104 2.663217 -3.866451 -16.671201 -7.995976 7.074929 27.300082 -19.419736 -154.199307 -74.125202 -27.853498 -2.604503 58.571987 26.425532 -45.865287 -8.776347 1.209022 7.556745 -12.502188 38.530617 177.316997 77.943025 -1.285789 -2.580187 -49.116239 -43.838275 -47.744323 14.692447 -1.688299 7.150411 8.755077 -14.247996 
18.860720 85.748253 -93.929314 95.340521 -6.419002 55.745839 153.401541 9.072096 -179.883783 -50.249166 7.130456 7.862086 94.071137 -4.207623 9.692629 21.454551 0.003097 0.000001 164.117015 7.143999 -175.048992 -95.193528 -3.841109 9.384123 82.007500 -2.898479 15.234962 21.454562 -0.003111 -0.000018 7.184348 -1.361939 1.356203 4.324905 -2.773157 2.661828 4.006772 -2.756899 2.678517 -5.442854 -16.249823 -8.457405 5.890269 26.635269 -20.046436 -156.321201 -73.305278 -25.693133 -5.618809 57.183471 25.483955 -42.459683 -8.491839 1.094194 9.104265 -12.308172 35.710538 173.838000 76.797288 -4.864763 -8.690956 -48.938288 -40.077484 -41.397947 15.045167 -1.526110 7.638504 9.025476 -12.708321 
18.058611 83.434853 -94.067253 97.925631 -5.148256 53.511725 151.247367 11.633192 177.565275 -54.712974 8.730345 6.210256 98.669568 -3.581475 8.853282 21.454553 0.003101 0.000001 162.526960 11.860104 -176.411874 -94.735277 -3.927290 8.124513 82.780117 -1.967019 15.897793 21.454558 -0.003108 -0.000014 7.315848 -2.039272 1.186178 4.580483 -4.123518 2.292835 4.261786 -4.109461 2.317725 -6.187264 -15.672767 -9.089699 3.997672 26.081330 -20.865625 -161.004798 -72.448506 -20.890902 -11.624592 54.516507 25.074395 -36.438796 -8.312691 0.930724 10.673647 -11.840579 30.350451 172.270498 75.324808 -6.511793 -11.491530 -49.711271 -34.972621 -37.068980 15.780568 -1.461858 8.245457 9.288501 -14.239279 
16.646669 82.609917 -94.209000 98.554814 -4.226588 50.214052 150.944927 10.011597 177.549934 -57.217833 5.970784 5.342577 100.356195 -3.094309 8.375349 21.454551 0.003090 -0.000000 160.617526 12.376605 -178.631495 -94.573484 -4.050532 7.673753 82.820552 -1.780633 15.306350 21.454565 -0.003113 -0.000018 7.560757 -2.410964 1.196530 5.064496 -4.871613 2.289106 4.745442 -4.857567 2.318531 -6.789076 -14.465337 -9.698517 2.295900 26.474303 -21.485233 -165.414887 -73.514870 -16.347190 -15.246676 54.059264 22.019948 -31.993750 -7.657999 0.790865 11.179672 -11.182151 33.155801 173.254497 74.844817 -5.520179 -10.268226 -50.849024 -32.849508 -39.577060 16.330403 -1.561231 8.614130 11.116288 -12.575527 
14.827330 83.221680 -94.206367 98.355728 -3.935338 45.552751 152.924712 7.004001 174.424276 -55.691126 6.076549 5.643450 100.324107 -3.388185 6.964764 21.454555 0.003093 -0.000000 158.030579 9.861497 178.518496 -95.578013 -3.753500 7.915759 82.292551 -1.926453 15.187423 21.454560 -0.003110 -0.000021 7.550945 -2.525125 1.082321 5.048258 -5.094722 2.056146 4.729017 -5.082072 2.086933 -6.016823 -13.188629 -9.493679 1.484229 25.635790 -20.679475 -167.963094 -74.801042 -13.728918 -12.441643 54.393212 23.157674 -32.648444 -7.685993 0.806061 10.947644 -12.585568 34.564165 173.091077 75.054640 -5.680860 -6.314416 -51.343850 -34.293553 -46.458380 15.781871 -1.720759 7.634855 10.706999 -11.544157 
12.900550 85.169647 -94.109383 98.480563 -4.527963 41.197956 155.879424 5.129310 173.218775 -50.628637 6.611651 5.048654 97.811526 -3.079396 4.779155 21.454553 0.003094 0.000001 155.134592 7.120202 178.347495 -97.796800 -3.475557 8.165628 81.456358 -2.014541 15.183751 21.454575 -0.003113 -0.000015 7.195709 -2.337016 0.636568 4.357858 -4.696166 1.186447 4.038693 -4.688777 1.214855 -5.495300 -12.970155 -7.982482 2.584686 24.788835 -18.664954 -165.311000 -75.242552 -16.446129 -6.990303 54.684195 29.641846 -36.080993 -8.851680 0.958199 11.111647 -14.199419 31.778780 172.644807 76.216162 -6.100794 -0.379565 -51.178109 -39.849953 -55.349855 15.749769 -2.012143 5.371383 11.340355 -16.566088 
